<mxfile host="app.diagrams.net" modified="2024-04-26T05:11:34.659Z" agent="Mozilla/5.0 (Windows NT 10.0; Win64; x64) AppleWebKit/537.36 (KHTML, like Gecko) Chrome/124.0.0.0 Safari/537.36 Edg/124.0.0.0" version="24.3.0" etag="CPLty0Ept4yObWTkoYx3" type="github">
  <diagram name="페이지-1" id="PPIMndVPyhlAblD6eZtu">
    <mxGraphModel>
      <root>
        <mxCell id="0" />
        <mxCell id="1" parent="0" />
      </root>
    </mxGraphModel>
  </diagram>
</mxfile>
